<svg width="99" height="99" viewBox="0 0 99 99" fill="none" xmlns="http://www.w3.org/2000/svg">
<path d="M79.9425 73.8323C81.48 73.8325 82.9556 73.2271 84.05 72.1472C85.1443 71.0673 85.7693 69.5998 85.7897 68.0625V34.0313C85.7884 32.6599 85.3039 31.3328 84.4212 30.2833C83.5386 29.2337 82.3143 28.5288 80.9634 28.2923V26.2969C80.9634 25.2165 80.5353 24.1801 79.7728 23.4147C79.0103 22.6493 77.9755 22.2172 76.8952 22.2131H75.3483V12.375C75.3483 11.9647 75.1853 11.5713 74.8952 11.2812C74.6051 10.9911 74.2117 10.8281 73.8014 10.8281C73.3912 10.8281 72.9977 10.9911 72.7076 11.2812C72.4175 11.5713 72.2545 11.9647 72.2545 12.375V22.2441H70.7077C70.1649 22.2297 69.6248 22.3236 69.1188 22.5204C68.6128 22.7173 68.1511 23.013 67.7608 23.3904C67.3705 23.7678 67.0593 24.2192 66.8455 24.7182C66.6317 25.2173 66.5196 25.754 66.5156 26.2969V28.1841C65.1534 28.433 63.9237 29.1574 63.0455 30.2281C62.1674 31.2989 61.6978 32.6466 61.7203 34.0313V68.0625C61.7203 69.6133 62.3364 71.1005 63.4329 72.1971C64.5295 73.2937 66.0167 73.9097 67.5675 73.9097H68.5111V78.7823H67.4902C66.2348 78.7823 65.0308 79.281 64.1431 80.1687C63.2554 81.0564 62.7567 82.2604 62.7567 83.5158C62.7567 84.7712 63.2554 85.9751 64.1431 86.8628C65.0308 87.7505 66.2348 88.2492 67.4902 88.2492H80.0353C81.2907 88.2492 82.4947 87.7505 83.3824 86.8628C84.2701 85.9751 84.7688 84.7712 84.7688 83.5158C84.7688 82.2604 84.2701 81.0564 83.3824 80.1687C82.4947 79.281 81.2907 78.7823 80.0353 78.7823H78.9989V73.8323H79.9425ZM70.6613 25.3378H76.9261C77.0554 25.3378 77.1834 25.3635 77.3026 25.4134C77.4219 25.4634 77.53 25.5366 77.6207 25.6287C77.7114 25.7208 77.7829 25.8301 77.8309 25.9501C77.879 26.0702 77.9027 26.1985 77.9006 26.3278V28.1067H69.6094V26.2969C69.6113 26.1662 69.6395 26.0373 69.6923 25.9177C69.745 25.7981 69.8213 25.6904 69.9166 25.6009C70.0118 25.5115 70.1241 25.4421 70.2467 25.3969C70.3693 25.3517 70.4998 25.3316 70.6303 25.3378H70.6613ZM64.8141 68.0625V34.0313C64.8141 33.301 65.1042 32.6006 65.6205 32.0843C66.1369 31.5679 66.8372 31.2778 67.5675 31.2778H79.9425C80.6728 31.2778 81.3731 31.5679 81.8895 32.0843C82.4058 32.6006 82.6959 33.301 82.6959 34.0313V34.2942H73.9252C73.5149 34.2942 73.1214 34.4572 72.8314 34.7473C72.5413 35.0374 72.3783 35.4308 72.3783 35.8411C72.3783 36.2514 72.5413 36.6448 72.8314 36.9349C73.1214 37.225 73.5149 37.388 73.9252 37.388H82.6959V39.4144H79.1381C78.7279 39.4144 78.3344 39.5774 78.0443 39.8674C77.7542 40.1575 77.5912 40.551 77.5912 40.9613C77.5912 41.3715 77.7542 41.765 78.0443 42.0551C78.3344 42.3452 78.7279 42.5081 79.1381 42.5081H82.6959V44.5345H73.9252C73.5149 44.5345 73.1214 44.6975 72.8314 44.9876C72.5413 45.2777 72.3783 45.6712 72.3783 46.0814C72.3783 46.4917 72.5413 46.8851 72.8314 47.1752C73.1214 47.4653 73.5149 47.6283 73.9252 47.6283H82.6959V49.6547H79.1381C78.7279 49.6547 78.3344 49.8177 78.0443 50.1078C77.7542 50.3979 77.5912 50.7913 77.5912 51.2016C77.5912 51.6118 77.7542 52.0053 78.0443 52.2954C78.3344 52.5855 78.7279 52.7484 79.1381 52.7484H82.6959V54.7748H73.9252C73.5149 54.7748 73.1214 54.9378 72.8314 55.2279C72.5413 55.518 72.3783 55.9115 72.3783 56.3217C72.3783 56.732 72.5413 57.1254 72.8314 57.4155C73.1214 57.7056 73.5149 57.8686 73.9252 57.8686H82.6959V59.895H79.1381C78.7279 59.895 78.3344 60.058 78.0443 60.3481C77.7542 60.6382 77.5912 61.0316 77.5912 61.4419C77.5912 61.8521 77.7542 62.2456 78.0443 62.5357C78.3344 62.8258 78.7279 62.9888 79.1381 62.9888H82.6959V64.9688H73.9252C73.5149 64.9688 73.1214 65.1317 72.8314 65.4218C72.5413 65.7119 72.3783 66.1054 72.3783 66.5156C72.3783 66.9259 72.5413 67.3193 72.8314 67.6094C73.1214 67.8995 73.5149 68.0625 73.9252 68.0625H82.6959C82.6878 68.786 82.3936 69.4768 81.8777 69.984C81.3617 70.4913 80.666 70.7737 79.9425 70.7695H67.5675C66.8452 70.7696 66.1518 70.4859 65.6368 69.9795C65.1217 69.4732 64.8262 68.7847 64.8141 68.0625ZM81.675 83.5313C81.6513 83.9498 81.4681 84.3434 81.1631 84.6311C80.8582 84.9189 80.4546 85.0788 80.0353 85.0781H67.4902C67.0553 85.0781 66.6382 84.9054 66.3307 84.5979C66.0232 84.2904 65.8505 83.8733 65.8505 83.4384C65.8505 83.0036 66.0232 82.5865 66.3307 82.279C66.6382 81.9715 67.0553 81.7988 67.4902 81.7988H80.0353C80.4702 81.7988 80.8872 81.9715 81.1947 82.279C81.5023 82.5865 81.675 83.0036 81.675 83.4384V83.5313ZM75.9052 78.7978H71.6048V73.8323H75.9052V78.7978ZM17.8045 38.6719C15.8555 39.5381 13.1639 40.7292 13.1639 43.7766V82.9125C13.1639 83.6058 13.301 84.2922 13.5672 84.9324C13.8334 85.5725 14.2236 86.1536 14.7153 86.6424C15.2069 87.1312 15.7904 87.518 16.432 87.7804C17.0737 88.0429 17.761 88.176 18.4542 88.1719H51.217C52.6119 88.1719 53.9496 87.6178 54.936 86.6314C55.9223 85.6451 56.4764 84.3074 56.4764 82.9125V43.6992C56.4764 40.6055 53.8158 39.4608 51.8358 38.5791L45.8648 35.903V32.5772C46.8738 32.2582 47.7564 31.6289 48.3869 30.779C49.0174 29.9291 49.3636 28.9019 49.3763 27.8438V20.4033C49.3763 19.0658 48.845 17.7832 47.8992 16.8375C46.9535 15.8918 45.6709 15.3605 44.3334 15.3605H25.3533C24.0144 15.3605 22.7302 15.8913 21.782 16.8365C20.8338 17.7818 20.2991 19.0644 20.295 20.4033V27.8438C20.3003 28.9093 20.6429 29.9458 21.2737 30.8045C21.9046 31.6632 22.7912 32.3 23.8064 32.6236V35.9494L17.8045 38.6719ZM53.3827 75.0389H16.2577V48.5719H53.3827V75.0389ZM51.217 85.0781H18.4542C17.8825 85.0741 17.3357 84.8441 16.9329 84.4384C16.5301 84.0327 16.3041 83.4842 16.3041 82.9125V78.0553H53.4291V82.9125C53.4291 83.2008 53.3716 83.4863 53.2599 83.7521C53.1482 84.0179 52.9845 84.2588 52.7784 84.4605C52.5724 84.6622 52.3282 84.8207 52.06 84.9268C51.7919 85.0329 51.5053 85.0843 51.217 85.0781ZM50.6138 41.4098C52.5319 42.2761 53.3827 42.7556 53.3827 43.6992V45.4781H16.2577V43.6992C16.2577 42.7556 17.093 42.2761 19.042 41.4098L25.9411 38.3161C26.2125 38.1941 26.4429 37.9964 26.6048 37.7467C26.7667 37.4971 26.8531 37.206 26.8538 36.9084V32.8402H42.7866V36.9084C42.7872 37.206 42.8736 37.4971 43.0355 37.7467C43.1974 37.9964 43.4278 38.1941 43.6992 38.3161L50.6138 41.4098ZM23.3888 20.4033C23.3887 20.146 23.4397 19.8913 23.5386 19.6538C23.6375 19.4163 23.7824 19.2008 23.9651 19.0196C24.1477 18.8384 24.3644 18.6952 24.6027 18.5981C24.8409 18.5011 25.096 18.4522 25.3533 18.4542H44.3334C44.59 18.4522 44.8443 18.5012 45.0817 18.5984C45.3191 18.6956 45.5348 18.8391 45.7162 19.0205C45.8976 19.2019 46.0411 19.4176 46.1383 19.655C46.2356 19.8924 46.2846 20.1468 46.2825 20.4033V27.8438C46.2825 28.0997 46.2321 28.3532 46.1341 28.5896C46.0362 28.8261 45.8926 29.041 45.7116 29.2219C45.5306 29.4029 45.3158 29.5465 45.0793 29.6444C44.8428 29.7424 44.5894 29.7928 44.3334 29.7928H25.3533C24.8349 29.7928 24.3376 29.588 23.9696 29.2229C23.6016 28.8578 23.3928 28.3621 23.3888 27.8438V20.4033Z" fill="#1E3D8E"/>
<path d="M27.4416 63.3136H28.7719C28.9222 63.8963 29.1567 64.4538 29.468 64.9688L28.5089 65.9124C28.3639 66.0562 28.2488 66.2273 28.1703 66.4158C28.0918 66.6043 28.0513 66.8064 28.0513 67.0107C28.0513 67.2149 28.0918 67.4171 28.1703 67.6056C28.2488 67.7941 28.3639 67.9651 28.5089 68.1089C28.6534 68.2523 28.8249 68.3657 29.0133 68.4427C29.2018 68.5197 29.4036 68.5587 29.6072 68.5575C29.8108 68.5587 30.0126 68.5197 30.201 68.4427C30.3895 68.3657 30.5609 68.2523 30.7055 68.1089L31.6491 67.1653C32.1628 67.4643 32.7143 67.6932 33.2887 67.846V69.1763C33.2887 69.5865 33.4517 69.98 33.7418 70.2701C34.0319 70.5602 34.4254 70.7232 34.8356 70.7232C35.2459 70.7232 35.6393 70.5602 35.9294 70.2701C36.2195 69.98 36.3825 69.5865 36.3825 69.1763V67.846C36.9579 67.6959 37.5097 67.4669 38.0222 67.1653L38.9812 68.1089C39.2694 68.3947 39.6583 68.5558 40.0641 68.5575C40.2676 68.5587 40.4694 68.5197 40.6579 68.4427C40.8464 68.3657 41.0178 68.2523 41.1623 68.1089C41.3073 67.9651 41.4224 67.7941 41.5009 67.6056C41.5795 67.4171 41.6199 67.2149 41.6199 67.0107C41.6199 66.8064 41.5795 66.6043 41.5009 66.4158C41.4224 66.2273 41.3073 66.0562 41.1623 65.9124L40.2187 64.9688C40.5177 64.455 40.7466 63.9036 40.8994 63.3291H42.2297C42.6399 63.3291 43.0334 63.1661 43.3235 62.876C43.6136 62.5859 43.7766 62.1925 43.7766 61.7822C43.7766 61.372 43.6136 60.9785 43.3235 60.6884C43.0334 60.3983 42.6399 60.2353 42.2297 60.2353H40.8994C40.7479 59.6555 40.519 59.0988 40.2187 58.5802L41.1623 57.6366C41.3073 57.4928 41.4224 57.3217 41.5009 57.1332C41.5795 56.9447 41.6199 56.7425 41.6199 56.5383C41.6199 56.3341 41.5795 56.1319 41.5009 55.9434C41.4224 55.7549 41.3073 55.5838 41.1623 55.44C40.8725 55.1519 40.4805 54.9902 40.0718 54.9902C39.6631 54.9902 39.2711 55.1519 38.9812 55.44L38.0222 56.3836C37.5105 56.0767 36.9587 55.8424 36.3825 55.6875V54.3572C36.3825 53.947 36.2195 53.5535 35.9294 53.2634C35.6393 52.9733 35.2459 52.8103 34.8356 52.8103C34.4254 52.8103 34.0319 52.9733 33.7418 53.2634C33.4517 53.5535 33.2887 53.947 33.2887 54.3572V55.6875C32.7143 55.8403 32.1628 56.0692 31.6491 56.3682L30.7055 55.4246C30.5612 55.2803 30.39 55.1659 30.2016 55.0879C30.0131 55.0098 29.8112 54.9696 29.6072 54.9696C29.4032 54.9696 29.2012 55.0098 29.0128 55.0879C28.8244 55.1659 28.6531 55.2803 28.5089 55.4246C28.3647 55.5688 28.2503 55.74 28.1722 55.9285C28.0942 56.1169 28.054 56.3189 28.054 56.5228C28.054 56.7268 28.0942 56.9288 28.1722 57.1172C28.2503 57.3057 28.3647 57.4769 28.5089 57.6211L29.468 58.5647C29.1581 59.0748 28.9236 59.6271 28.7719 60.2044H27.4416C27.0313 60.2044 26.6379 60.3674 26.3478 60.6575C26.0577 60.9476 25.8947 61.341 25.8947 61.7513C25.8947 62.1615 26.0577 62.555 26.3478 62.8451C26.6379 63.1352 27.0313 63.2982 27.4416 63.2982V63.3136ZM34.8356 58.5802C35.6808 58.5802 36.4913 58.9159 37.0889 59.5135C37.6865 60.1111 38.0222 60.9216 38.0222 61.7668C38.0222 62.6119 37.6865 63.4224 37.0889 64.02C36.4913 64.6176 35.6808 64.9533 34.8356 64.9533C33.9905 64.9533 33.18 64.6176 32.5824 64.02C31.9848 63.4224 31.6491 62.6119 31.6491 61.7668C31.6491 60.9216 31.9848 60.1111 32.5824 59.5135C33.18 58.9159 33.9905 58.5802 34.8356 58.5802ZM28.1686 26.7919C28.5788 26.7919 28.9723 26.6289 29.2624 26.3388C29.5525 26.0487 29.7155 25.6553 29.7155 25.245V22.9402C29.7155 22.5299 29.5525 22.1365 29.2624 21.8464C28.9723 21.5563 28.5788 21.3933 28.1686 21.3933C27.7583 21.3933 27.3649 21.5563 27.0748 21.8464C26.7847 22.1365 26.6217 22.5299 26.6217 22.9402V25.245C26.6217 25.6553 26.7847 26.0487 27.0748 26.3388C27.3649 26.6289 27.7583 26.7919 28.1686 26.7919ZM34.8356 26.7919C35.2459 26.7919 35.6393 26.6289 35.9294 26.3388C36.2195 26.0487 36.3825 25.6553 36.3825 25.245V22.9402C36.3825 22.5299 36.2195 22.1365 35.9294 21.8464C35.6393 21.5563 35.2459 21.3933 34.8356 21.3933C34.4254 21.3933 34.0319 21.5563 33.7418 21.8464C33.4517 22.1365 33.2887 22.5299 33.2887 22.9402V25.245C33.2887 25.6553 33.4517 26.0487 33.7418 26.3388C34.0319 26.6289 34.4254 26.7919 34.8356 26.7919ZM41.5181 26.7919C41.9284 26.7919 42.3218 26.6289 42.6119 26.3388C42.902 26.0487 43.065 25.6553 43.065 25.245V22.9402C43.065 22.5299 42.902 22.1365 42.6119 21.8464C42.3218 21.5563 41.9284 21.3933 41.5181 21.3933C41.1079 21.3933 40.7144 21.5563 40.4243 21.8464C40.1342 22.1365 39.9712 22.5299 39.9712 22.9402V25.245C39.9712 25.6553 40.1342 26.0487 40.4243 26.3388C40.7144 26.6289 41.1079 26.7919 41.5181 26.7919Z" fill="#1E3D8E"/>
</svg>
