<svg width="69" height="69" viewBox="0 0 69 69" fill="none" xmlns="http://www.w3.org/2000/svg">
<path d="M4.3125 65.7656H32.3438C34.7221 65.7656 36.6562 63.8315 36.6562 61.4531V53.9062C36.6562 53.3111 36.1743 52.8281 35.5781 52.8281H2.15625V29.1094H31.2656C32.6909 29.1094 32.6931 26.9531 31.2656 26.9531H2.15625V23.7188C2.15625 22.5296 3.12333 21.5625 4.3125 21.5625C5.46286 21.5625 6.5453 21.1129 7.36036 20.2979C7.91344 19.7448 8.28216 19.0645 8.47191 18.3281H19.4062C20.8315 18.3281 20.8337 16.1719 19.4062 16.1719H8.625V14.0156H28.0312V16.1719H26.9531C25.5278 16.1719 25.5257 18.3281 26.9531 18.3281H28.1843C28.6663 20.1825 30.3406 21.5625 32.3438 21.5625C33.5329 21.5625 34.5 22.5307 34.5 23.7188V49.5938C34.5 51.0201 36.6562 51.0212 36.6562 49.5938V23.7188C36.6562 22.5684 36.2077 21.486 35.3916 20.6709C34.5765 19.8558 33.4941 19.4062 32.3438 19.4062C31.1546 19.4062 30.1875 18.4392 30.1875 17.25V14.0156C31.3767 14.0156 32.3438 13.0485 32.3438 11.8594V5.39062C32.3438 4.20145 31.3767 3.23438 30.1875 3.23438H6.46875C5.27958 3.23438 4.3125 4.20145 4.3125 5.39062V11.8594C4.3125 13.0485 5.27958 14.0156 6.46875 14.0156V17.25C6.46875 17.8246 6.2445 18.3659 5.83589 18.7734C5.42728 19.1809 4.88714 19.4062 4.3125 19.4062C1.93416 19.4062 0 21.3404 0 23.7188V61.4531C0 63.8315 1.93416 65.7656 4.3125 65.7656ZM6.46875 5.39062H8.625V8.625C8.625 10.0503 10.7812 10.0524 10.7812 8.625V5.39062H12.9375V8.625C12.9375 10.0503 15.0938 10.0524 15.0938 8.625V5.39062H17.25V8.625C17.25 10.0503 19.4062 10.0524 19.4062 8.625V5.39062H21.5625V8.625C21.5625 10.0503 23.7188 10.0524 23.7188 8.625V5.39062H25.875V8.625C25.875 10.0503 28.0312 10.0524 28.0312 8.625V5.39062H30.1875L30.1886 11.8594H6.46875V5.39062ZM34.5 54.9844V61.4531C34.5 62.6423 33.5329 63.6094 32.3438 63.6094H4.3125C3.12333 63.6094 2.15625 62.6423 2.15625 61.4531V54.9844H34.5ZM63.6094 43.2339C62.169 43.2339 60.816 43.7945 59.7982 44.8123C57.9816 46.6289 54.1585 50.4519 49.1258 55.4846C45.7513 58.8602 48.1469 64.6875 52.937 64.6875C54.3774 64.6875 55.7304 64.1269 56.7482 63.1091C59.1028 60.7545 61.2138 58.6425 67.4205 52.4357C68.4383 51.4179 69 50.0638 69 48.6245C69 45.6467 66.5904 43.2339 63.6094 43.2339ZM55.2237 61.5847C54.0022 62.8062 51.8718 62.8062 50.6503 61.5847C49.3889 60.3233 49.3889 58.2716 50.6503 57.0102L55.2237 52.4368L59.7982 57.0112L55.2237 61.5847ZM65.8961 50.9112L61.3216 55.4857L56.7471 50.9112L61.3216 46.3367C64.3468 43.3126 68.8954 47.9097 65.8961 50.9112ZM45.2812 53.9062C48.8143 53.9062 51.75 51.033 51.75 47.4375C51.75 43.87 48.8488 40.9688 45.2812 40.9688C41.7482 40.9688 38.8125 43.842 38.8125 47.4375C38.8125 51.005 41.7137 53.9062 45.2812 53.9062ZM41.58 45.2608L47.458 51.1387C43.6544 53.3855 39.3138 49.0989 41.58 45.2608ZM48.9825 49.6142L43.1045 43.7363C46.9081 41.4895 51.2487 45.7761 48.9825 49.6142Z" fill="#1E3D8E"/>
<path d="M16.1719 49.5938H20.4844C21.0795 49.5938 21.5625 49.1108 21.5625 48.5156V44.2031H25.875C26.4701 44.2031 26.9531 43.7201 26.9531 43.125V38.8125C26.9531 38.2174 26.4701 37.7344 25.875 37.7344H21.5625V33.4219C21.5625 32.8268 21.0795 32.3438 20.4844 32.3438H16.1719C15.5767 32.3438 15.0938 32.8268 15.0938 33.4219V37.7344H10.7812C10.1861 37.7344 9.70312 38.2174 9.70312 38.8125V43.125C9.70312 43.7201 10.1861 44.2031 10.7812 44.2031H15.0938V48.5156C15.0938 49.1108 15.5767 49.5938 16.1719 49.5938ZM11.8594 42.0469V39.8906H16.1719C16.767 39.8906 17.25 39.4076 17.25 38.8125V34.5H19.4062V38.8125C19.4062 39.4076 19.8892 39.8906 20.4844 39.8906H24.7969V42.0469H20.4844C19.8892 42.0469 19.4062 42.5299 19.4062 43.125V47.4375H17.25V43.125C17.25 42.5299 16.767 42.0469 16.1719 42.0469H11.8594Z" fill="#1E3D8E"/>
</svg>
