<?xml version="1.0" encoding="utf-8"?>
<!-- Generator: Adobe Illustrator 22.1.0, SVG Export Plug-In . SVG Version: 6.00 Build 0)  -->
<svg version="1.1" id="Layer_1" xmlns="http://www.w3.org/2000/svg" xmlns:xlink="http://www.w3.org/1999/xlink" x="0px" y="0px"
	 viewBox="0 0 460 340" style="enable-background:new 0 0 460 340;" xml:space="preserve">
<style type="text/css">
	.st0{fill-rule:evenodd;clip-rule:evenodd;fill:#C7D03C;}
	.st1{fill-rule:evenodd;clip-rule:evenodd;fill:#004226;}
</style>
<g>
	<path class="st0" d="M161.2,84.8c6.6-9.4,13.2-18.9,19.8-28.3c0,0,8.2-13.4,8.2-14.3c0-0.9,1.7-7.6,1.7-7.6c1.7,0.7,3,2.5,4.7,3.2
		c2.1,0.2,3.5-0.3,4.6-1.4c6.2-6.4,9.8-14.7,13.7-22.6c0.7-1.5,1.5-2.9,2.3-4.3c4.4-8.4,3.9-10.2,3.3,0c0,0.8-1.4,9.6-1.5,10.7
		c-0.1,1.1-0.8,6-0.8,7.9s0.2,6.2,0.1,7.8c-0.1,1.5-0.7,7.7-1,8.8c-0.3,1.1-0.4,4.7-0.5,6.1c-0.6,7.1,6.5,5.7,11.6,6.4
		c4.7,0.6,10.8,0.5,10.1,2.7c-0.8,2.3-9.7,6.2-10.6,7.9c-5.2,3.5-11.3,9.9-13,14.9c-2.6,3.8-6.9,7.3-10.3,10.4
		c-1.9,1.4-3.7,2.9-5.6,4.3c-1.2,0.9-2.4,1.8-3.5,2.6c-3.7,4.3,1.8,2.4,5.5,1.5c12.9-2.6,28.5-6.1,40.2-13.1
		c10.1-6,16.4-13.9,22.5-28.9c0,0,4.8-9.8,5-10.8c5.6-10.3,9.1-13.5,5.8-1.7c-0.6,5.6-2.8,8.9,2.9,4.6c3.7-2.8,7.3-5.5,11-8.3
		c4.1-3.5,8.3-6.9,12.6-10.5c3.6-3,7.5-5.5,11.4-8.7c10.3-8.4,2.3-0.3-0.5,8.4c-4.5,14-8.5,21.3-16.9,30.1c-0.2,0.6,0.5,0.8,1.7,0.8
		c2,0,6.4-0.6,9.9-1.8c5.9-2,6.7-4.3,2.3,2.6c-2.4,3.9-5,6.6-8.1,10c-10.9,9.7-9.1,9.4-3.2,6.5c2.7-1.3,6.3-3.1,9.9-4.8
		c6.9-3,12.8-6.3,14.1-4.8c0.6,0.6-3.3,2.8-3.5,5.1c-0.3,3.2,1.5,2.5,4.6,1.7c2.7-0.7,6.2-1.7,10.8-3c4.9-1.4,8.8-3,12.5-4.8
		c4.6-2.3,11.8-3.9,16.2-8.5c1.8-1.9,4.8-5.7,2.7,0.1c-0.9,2.4-1.9,4.7-2.3,6.9c-0.4,1.9-0.7,1.6,1.2,1.9c14,1.8,36.1-8.5,43.8-14.4
		c5.7-4.4,3-1.9-1.1,4.8c-5.8,8.7-13.3,15.1-21.2,20.9c-8.4,6.1-16.2,11.8-25.5,15c-3.4,1.2-3.3,0.5-2.1,2.5
		c2.2,3.6,8.4,5.5,9.9,5.9c6,1.6-21.5,7.2-39.1,5.9c-6.3,0.2-3.7,1.3,0.3,2.9c14.4,5.6,34.6,8.1,50.3,10.3c8.2,1.2,13.7-1.7,6.1,3.6
		c-3.2,2.2-7.2,4.9-10.9,6.5c-2.7,1.2-1.6,0.3,0.6,1.8c9.3,6.6,31.9,20.5,46.7,24.1c0.9,0.2-2.1,1.7-7.4,1.9
		c-7.7,0.4-19.9-0.7-29.9-2.3c-4.1-0.6-8.3-1.1-12.4-1.7c-19-1.7-32.7-5.2-49.5-13.4c-2-0.5-4.5-1.7-4.4,0.9
		c0.3,4.6,3.1,14.4,5.1,18.1c2.1,3.9-11.6-10.9-11.7-11c-0.8-1-6.1-6.7-6.1-6.7c-2.8-3.9-5.8-7-9.1-9.4
		c-13.4-10-32.9-14.5-50.4-17.1c-9-1.3-17.6-1.5-26.7-1.6c-6.1-0.1-4.5,0,0.3,1.9c9.8,3.8,19.5,6.6,28.9,11.4
		c9.9,5.1,19.5,12.2,28.5,18.9c6.4,4.8,11,8.8,16.5,15.3c0.7,0.8,2.3,3.5,1.9,3.4c-1.4-0.2-10-2.8-12.6-3.2c-2.1-0.3-6-0.7-8.4-1
		c-2.1-0.3-1.7,0-0.4,1.3c5.1,4.8,9.9,8.7,14.3,13.3c3.8,3.9,7.2,8.1,10.4,13.6c2.2,3.8,1.2,4.7-0.9,2.8c-5.6-5-16.3-9.4-25.5-13.5
		c-5.9-2.7-10.8-5-14.9-8.9c-1.6-1.5-4.1-5.7-2.3-0.2c0.1,0.2,1,5,1.6,9c0.2,1.3,1,7.9,0.5,7.8c-1-0.3-3.2-4.1-3.7-5.1
		c-9.3-11.6-12.4-21.6-19.2-29.7c-6.1-7.2-15-12.4-27.6-17.1c-12.9-5.7-22.1-8-32.3-6.9c-8.6,0.9-19.1,3.6-25.5,10
		c-10,9.2-17.6,27.3-25.9,38.2c1.7-4.8,4.3-11.3,5.3-17.6c0.9-5.7,1.1-11.6,1.9-17.4c0.2-1.1,2.6-12.3,2.6-12.3
		c3.9-7.1,7.8-14.3,11.7-21.4C149.2,101.8,155.2,93.3,161.2,84.8z"/>
	<path class="st1" d="M115.8,176.1c-3.6-6.3-6.1-16.8-5.1-24c3.1-22.9,5.7-22.5,0.7-32.2c-3.5-6.8-10.9-8.5-12-8.9
		c-4.1-1.5-4-2.9-6.8-5.5c-1.8-1.6,5.1,1,6.1-0.5c3.1-5.7-3.2-14.5-6.5-20.2c-1-1.8-1.8-2.7,0.5-1.4c2,1.1,12,11.6,12,9.4
		c-0.1-7.2,0.1-9,2.2,0.3c0.4,1.9,1.4,3.7,1.9,4.3c1.7,2.4,7.2,3.6,7.9,1.8c0.9-2.4,0.6-2.9,0.9-3.7c0.3-0.7,0.6,0.2,2.4,3.5
		c1.1,1.9,0.3,6.2,0.3,8.4c-0.1,4.7,0.2,8.2,2.4,12.7c1.2,2.5,2.3,4.5,3,3.7c5.6-7.1,10.4-18.1,11.6-28.1c1.4-12.3-7-12.6-8.7-22.8
		c-0.3-1.8-0.3-1.5,1-0.5c13.9,11.1,6.5-15,5.8-25c-0.1-1.8,0.2-1.1,1,0c4.5,6.2,5.9,10.6,8.1,18c0.6,2.5,5.2,10,4.9,3.6
		c-0.4-11.3,3.3,0.7,6.6,2.7c7.8,4.6,14.2-12.6,15.5-20.3c0.8-3.8-2-6.4-1-7.9c0.3-0.4,0.8,1,2,2c1.2,1.1,2.9,1.8,4.1,2.2
		c2,0.7,3-0.6,4.6-1.4c5.6-2.9,5.7-15.1,6.2-23c0.2-3.2,0.8-3.6,2.2-0.4c1.1,2.6,1.4,7.2,1.4,12.2c0,7.7,0,12-0.9,19.5
		c-0.1,0.6-0.4,2.1-0.7,3.5c-0.6,2.5-1.6,3.2,1,3c0.3,0,1.4-0.3,2.3-0.6c1.5-0.4,2.3-0.8,1.1,1c-3.5,5.3-9.4,6.3-11.5,11.8
		c-0.5,1.4-1.3,2.9-1.7,4.2c-0.4,1.5-0.2,1,1.8,0c5.2-2.5,23.8-16.9,23.6-16c-0.5,2.8,4.9,2.6,8.6,2c7.1-1,12.3-2.3,19.1-2.4
		c3.7,0,2.6,0.7-0.2,1.4c-8.4,2.2-11.1,4-15.9,10c-1.1,1.3-2,1.9-0.5,2.2c3.8,1.1,3.4,0.8,0.8,3.9c-1.7,2-4.6,3.8-6.4,5.1
		c-3.7,2.4-8,5-8,5c-2,1.2-4,2.4-6,3.6c-6.5,4.4-3.2,5.7,0,6c3.1,0.3,6.2,0.9,0.9,2.3c-7.1,1.8-26.6,2.9-32.1,5.7
		c-6.3,3.3-9.2,4.8-14.4,9.6c-4.7,4.1-4.6,5.4-0.8,7.1c3.4,1.5,10.4,2.1,23.9-6.8c5.4-3.6,11-7.9,12.6-6.8c0.8,0.6-3.5,3.1-4,7.3
		c-0.3,3.2,4.3,2.2,7.2,3.3c4.6,1.4,9.2,1.4,11.1,2.2c5.9,2.6-18.4,6.2-20,6.4c-2,0.3-3.8,0.3-4.7,0.5c-4.4,1.2,6.5,5.9,5.6,8
		c-0.3,0.7-1.1-0.3-4.3-0.6c-8.1-0.9-12.5-3-18-2.7c-7.3,0.3-16.8,3.3-24.2,7.4c-4.7,2.6-8.2,4.4-10.6,6.5
		c-8.5,7.4-5.5,29.4-0.9,37.6c0.7,1.3,0.1,1.3-0.7,0.6C121,183.3,117.7,179.6,115.8,176.1z"/>
	<path class="st1" d="M19.5,333c10.8-2,21.2-4.5,31.4-10.3c4.4-2.5,8.7-5.4,13.3-9c3-2.5,5.8-5.1,8.1-8c5.6-6.8,9.1-14.9,9.8-26
		c0.4-12.9-4-20.7-8.9-30.3c-2.6-5.1-5.6-9.8-9-14.5c-9.2-12.5-20.8-25.3-32.8-35c-7.4-6.1,0.6-2.6,4.7-0.6c5,2.4,9.6,3.1,2.8-4.6
		c-2.2-3.1-4.5-6.1-6.7-9.2c-5.2-7.2,2.9-0.1,6.9,1.8c3.9,2,7.1,4,7.7,3.7c1.5-0.6-0.4-7.4-3.7-15.4c-3-7.4-6.3-14.7-9.2-22.1
		c-1.6-4.1-0.3-4.1,3.4-1.6c2.6,1.8,6.3,6.1,10.4,10.7c7.1,8,12.6,17.1,19.9,25c1.2,1.5,2.8,2.8,4,4.3c0,0,0.7,1.1,1.8-0.1
		c1.1-1.2,1.7-3.6,1.9-4.7c0.7-2.9,1.7-15.9,4-6.1c3.4,10.7,7.5,21.1,10.5,31.9c1.9,6.6,3.8,12.8,5.5,19.7c1.1,4.4,1.7,9.4,2.5,13.7
		c1.2,6.9,3,6,4.1,2.6c3.7-12.4,5.2-22.3,12-33.9c3-5.2,6.1-10.1,9.9-14.8c4.1-5.2,8.6-10.1,13.1-15c3.2-3.4,5.4-5.7,2.3,0.7
		c-1.1,2.2-2,4.2-0.7,4.8c1.9,1,4.9-1.9,7-4.1c3-3.1,6.4-5.3,9.9-7.8c6.1-4.5,12.4-8.7,19.4-11.9c2-0.9,4-1.9,6.3-2.5
		c0.7-0.2,1.9-0.1,1.7,0c-0.5,0.2-5.1,2.8-10.3,7.2c-10.7,9.2-21.6,20.6-26.7,34.4c-0.6,1.7-2.6,7.1,1.4,5.5
		c2.3-0.9,6.2-3.4,9.6-5.3c1.8-1,14.1-7.9,13.9-6.8c-0.2,0.7-1.8,2.5-3.7,4.5c-2.4,2.6-5.2,5.7-6,6.6c-5.7,6.5-10.8,13.3-13.9,17.9
		c-3.2,4.8-5.8,10-8.2,15.7c-3.6,7.1-6.6,14.7-9.5,22c-3.2,8.1-8.9,15.5-14.2,22.4c-6.2,6.8-11.3,12.8-18.9,17.8
		c-11,7-20.8,12.6-32.8,17.7c-5,2.2-10.3,4-15.8,5.5c-10.6,3-21.9,5.1-32.9,6.5c-4.4,0.5-8.9,1-13.7,1.2
		C2.7,336,16.7,333.5,19.5,333z"/>
	<path class="st1" d="M188.6,239.6c14.3,12.9,5.4,30.6-9.2,38.5c-9.6,5.1-21.7,7.4-30.1,2.6c-10.6-6.1-7.4-23.5,3.5-34.4
		C160.5,238.6,178.3,230.3,188.6,239.6L188.6,239.6z M163.8,242.9c-6.9,2-10.4,11.8-7.9,20.1c2.5,8.3,9.3,14.2,17.9,12
		c8.7-2.1,9.6-11.2,7-19.6C178.3,247.1,170.7,240.9,163.8,242.9z"/>
	<path class="st1" d="M203.9,246.2c3.3-2.6,6.6-5.2,9.9-7.8c1-0.8,2.1-1.7,3.2-2.5c4.2-3.1,2,1.8,1.7,4.3c-0.6,4.1-0.4,8.3-0.3,12.5
		c0.1,2.3-0.4,14.6,2.1,13.7c1.9-0.7,4.9-4.7,6.2-6.3c1.8-2.2,3.3-4.5,4.5-7c1-2.1,1.9-4.3,2.4-6.5c1.7-7.3,5.2-17.2,6.7-15.6
		c1.1,1.2,1,4,0.7,6.8c-0.8,7.1,0,10.4,4.5,16.6c1.9,2.6,4.4,5.8,6.3,7.8c1.3,1.4,2.2,2.6,3,3.3c0.7,0.3,1.5,0.2,1.5,0.2
		c1.2-1.6,2.3-3.2,3.5-4.8c4.2-6.5,9.1-14.3,1.4-20.2c-1.6-1.2-3.6-2-6.1-1.9c-3.5,1-5.3,1.4-5.9,1.2c-1.1-0.2,2.1-2.1,6.3-4.4
		c2.7-1.4,5.6-2.4,8.7-3.4c1.3-0.4,2.7-0.9,4.1-1.2c2.5-0.5,4.9-0.3,6.6,2.3c0.9,1.4,1.5,2.8,1.7,4.9c0.5,4.5-0.6,6-3.1,8
		c-1.5,2.3-3.1,4.6-4.6,6.9c-1.7,2.7-3.4,5.1-5.1,7.7c-1.2,2-3.2,5.5-4.4,7.5c-2.6,4.6-4.3,8-6.6,12.8c-0.4,1.1-2.2,2.1-3.3,0.9
		c-0.7-0.8-1-2.1-1.7-2.9c-3.3-4.2-6.3-8.6-9-12.6c-1.9-2.7-3.2-5.5-4.6-7.4c-1.5-2.1-4.6,2.1-6.3,3.8c-3.2,2.9-5.8,5.8-8.1,8.5
		c-2,2.3-3.7,4.5-5.4,6.5c-1.9,2.4-3.7,4.5-4,3.4c0.3-0.6-0.1-7-0.6-11.5c-0.9-6.6-0.5-13.4-1.4-19.9c-0.9-3.7-0.7-1.4-3.4-1.4
		C202.8,248.5,202.3,247.7,203.9,246.2z"/>
	<path class="st1" d="M309.1,244c-2.8,0.1-4.5,0.9-7.4,0.2c-0.5-0.4-0.4-0.9,0.2-1c1.8-0.3,8.6-0.1,10.4-1c3.9-1.6,6.7-3.3,10.3-5.4
		c0.3-0.2,4.2-2.2,4.2-2.2c2.5-0.9,3.8,0.8,2.4,1.1c-2.6,0.7-4.2,1.7-5.3,3c-1,1.2-1.8,2.5-2,3.9c-0.7,4.3,0.2,9-0.1,13.9
		c-0.3,4.9-2.1,9.6-5.1,13.6c-2.6,3.3-5.8,5.9-10.9,7.6c-1.1,0.4-1.3,0.4-1.9,1.3c-2,2.9-4,5.5-6.3,8c-2.9,3.2-6.2,6.2-10.2,9.1
		c-1.5,1-4.3,3.9-6.4,4.3c-0.9,0.2-1.6-0.1-0.9-0.8c2.7-2.6,5-5.3,7.6-7.8c2-2.3,4.6-4.8,5.7-7.7c-3.9-0.5-7.1-1.7-8-4.2
		c-0.7-1.8-0.4-3.6,0.3-5.5c0.8-2.1,6-13.9,9-8.6c1.6,2.7,1.6,4.6,4.5,6.7c3.4,2.4,3.3,1.2,5.6-2.1c2.6-4.3,4.3-7.3,4.6-10.9
		c0.3-3.1,0.1-5.7,0.6-8.5c0.2-1.3,0.6-2.6,1.1-4C311.7,245,311.8,243.8,309.1,244z"/>
	<path class="st1" d="M345.6,247c2.1-1.4,4.2-2.8,6.3-4.2c4.3-3.6,10.5-9.3,16.5-6.1c2.9,1.5,4.7,4.8,6.2,8.3c1.9,4.7,3,10,3.7,13.9
		c0.6,3.5,1.3,4.6,2.4,4.5c1.4-0.2,3.5-2.5,6.9-4.9c5.7-4.1,9.6-4.2,2,0.8c-1.7,1.1-3.9,3.5-6,5.3c-2.3,2-4.3,3.6-3.5,6.2
		c0.2,0.9,3,15.2,0.3,10.5c-0.6-1-1.1-2.1-1.6-3.2c-1.8-4.3-2.7-9-8.4-5.2c-1.6,1-3.3,2.4-5.2,3.4c-2.9,1.6-5.8,3.2-8.9,4.8
		c-3.8,1.3-7.3,2.7-11.4,2.6c-4.4-0.2-7.9-2.1-5.8-9.6c1.2-4.2,4.2-7.5,9-10c3.5-1.8,7.3-3,11.7-2.4c3.2,0.4,6.3,1.4,9.7,2.8
		c2.3,0.9,3.5,1.2,4,0.9c0.9-0.5-0.9-2.8-2.7-5.9c-2.5-4.1-5.7-8.7-9.5-11c-5.9-3.6-10.5-1.6-16,1
		C341.7,251.1,338.8,252.2,345.6,247L345.6,247z M369.6,267.1c-1.4-0.7-4.2-1.9-7.3-2.8c-4.6-1.3-9.7-1.5-12.4,1.6
		c-1.9,2.2-0.9,4.6,1,6.4c3.1,2.9,6.2,2.9,10.2,2.1c2.6-0.5,5.2-1.6,7.6-3.2C370.6,269.8,371.9,268.3,369.6,267.1z"/>
	<path class="st1" d="M422.9,244.6c-0.4,2.4-1.2,4.6-1.5,5.7c-0.5,2.8-0.3,4,0.4,3.8c1.6-0.4,5.4-5.5,6.7-6.9
		c1.5-1.6,3.3-3.6,5.2-5.4c2.8-2.5,5.9-5,9.4-5c7.1,0,6.2,9.3,5.6,13.1c-0.6,3.8-1,7.6-1.7,11.5c-0.7,3.5-1.2,7-0.8,9.2
		c0.3,1.5,1,2.2,2.6,2.1c2.6-0.2,5.5-2.5,7.7-3.5c3.1-1.4,3.3-0.3,0.6,1c-1.9,0.9-3.7,2-5.6,2.9c-0.9,0.5-6.4,3.2-10,5.3
		c-3.1,1.8-4.1,2.9-6.3,3.6c-2.7,0.9-1.6-1.2-0.9-2.5c0.7-2.4,1.6-4.8,2.2-7.1c1.1-5.3,4.7-19.3,0.7-23.9c-3.3-3.7-7.2,0-9.5,2.6
		c-3.2,3.5-5.5,6.4-7.8,10.6c-1.9,4.1-3.7,8.2-5.8,11.9c-0.7,1.3-1.5,2.5-2.3,3.7c-0.7,1-2.9,5.2-3.9,5.6c-0.6,0.2-1.1,0.3-1.1-0.1
		c0-1.1,0.6-1.6,1-2.5c0.4-0.8,0.7-1.7,0.9-2.7c1-3.7,1.6-7.5,2-11.3c0.6-5.2,0.8-9.8,0.2-14.4c-0.2-1.6-0.6-2.9-1.3-3.9
		c-1.6-2.5-4.9-1.2-7.2-1.2c-2.3,0.1-2-0.6-0.5-1.6c1.6-1,3.6-1.6,5.4-2.5c4.1-2,8.3-4,12.2-6C426,233.2,423.8,238.6,422.9,244.6z"
		/>
</g>
</svg>
